<svg width="18" height="16" viewBox="0 0 18 16" fill="none" xmlns="http://www.w3.org/2000/svg">
<path d="M15.5613 4.55895V1.07507C15.5556 0.940035 15.483 0.816707 15.3678 0.746023C15.2579 0.678413 15.1255 0.657482 15.0001 0.687971L7.31619 3.74604H3.52263C2.80745 3.76016 2.15588 4.16 1.81939 4.79119L1.471 4.92667C0.588966 5.23234 -0.00185069 6.06415 3.86759e-05 6.99764C-0.00551829 7.92784 0.588225 8.75598 1.471 9.04927L1.70325 9.14604C1.88207 9.60897 2.22716 9.98855 2.67097 10.2106L3.69679 13.9267C3.97197 14.9375 5.01446 15.5338 6.02523 15.2586C6.43293 15.1476 6.79191 14.9036 7.04519 14.5654C7.39647 14.0793 7.5102 13.4608 7.35486 12.8815L6.65809 10.3267H7.31615L15 13.4428L15.1355 13.4815C15.2167 13.4828 15.2967 13.4628 15.3677 13.4235C15.4826 13.3618 15.5562 13.244 15.5613 13.1138V9.43641C16.9081 9.43637 18 8.3445 17.9999 6.9976C17.9999 5.65078 16.9082 4.55899 15.5613 4.55895ZM1.62586 8.27508C1.10862 8.0681 0.781385 7.55386 0.812948 6.99764C0.781385 6.44143 1.10862 5.92719 1.62586 5.72021V8.27508ZM6.42585 14.0815C6.21268 14.3686 5.8736 14.5345 5.51618 14.5267C5.00727 14.5111 4.56782 14.1659 4.43231 13.6751L3.52263 10.3267H5.86456L6.60004 13.0751C6.70055 13.4195 6.63627 13.791 6.42585 14.0815ZM7.04523 9.55247H3.52263C2.9356 9.58467 2.43362 9.13485 2.40142 8.54781C2.39998 8.52144 2.3995 8.49502 2.40005 8.46861V5.72021C2.37834 5.07923 2.88036 4.54198 3.52134 4.52024C3.52178 4.52024 3.52219 4.5202 3.52263 4.5202H7.04523V9.55247ZM14.7872 12.5332L7.81939 9.74604V4.44281L14.7872 1.6557V12.5332ZM15.5613 8.66217V5.33315C16.4807 5.33318 17.2258 6.07845 17.2258 6.99775C17.2257 7.91695 16.4806 8.66214 15.5613 8.66217Z" fill="#929DAD"/>
</svg>
