<svg width="18" height="18" viewBox="0 0 18 18" fill="none" xmlns="http://www.w3.org/2000/svg">
<path d="M15.5052 7.44059H15.4606V6.34901C15.4606 2.84255 12.6181 0 9.1116 0C5.6051 0 2.76259 2.84255 2.76259 6.34901V7.44059H2.49528C1.51507 7.44059 0.757659 8.30938 0.757659 9.31189V12.0965C0.732971 13.0682 1.50066 13.8759 2.4723 13.9005C2.47997 13.9008 2.48761 13.9009 2.49528 13.901H4.14379C4.37728 13.89 4.55769 13.6918 4.54669 13.4583C4.54631 13.4499 4.54567 13.4415 4.54477 13.4331V7.97521C4.54477 7.7079 4.38884 7.44055 4.14379 7.44055H3.65368V6.34896C3.65368 3.33466 6.09729 0.891048 9.1116 0.891048C12.1259 0.891048 14.5695 3.33466 14.5695 6.34896V7.44055H14.0794C13.8344 7.44055 13.6784 7.70786 13.6784 7.97521V13.4331C13.6536 13.6656 13.8218 13.8742 14.0543 13.899C14.0626 13.8999 14.071 13.9005 14.0794 13.9009H14.5918L14.5472 13.9677C13.8788 14.8562 12.8298 15.3765 11.718 15.3712C11.4746 14.1778 10.3098 13.4075 9.11633 13.651C8.09574 13.8591 7.35991 14.7529 7.35168 15.7945C7.36387 17.0161 8.35772 18 9.5794 17.9999C10.1842 17.9901 10.7606 17.7419 11.1833 17.3093C11.4686 17.0172 11.6555 16.6434 11.718 16.24C13.1103 16.2453 14.4233 15.5929 15.2601 14.4801L15.6834 13.8563C16.6413 13.7895 17.2427 13.188 17.2427 12.3192V9.53456C17.2428 8.57673 16.5299 7.44059 15.5052 7.44059ZM3.65368 13.0099H2.49528C2.01558 12.9982 1.63617 12.5999 1.64785 12.1202C1.64807 12.1123 1.64837 12.1044 1.64875 12.0965V9.31185C1.64875 8.79948 2.00518 8.33164 2.49528 8.33164H3.65368V13.0099V13.0099ZM10.5374 16.6856C10.2905 16.9533 9.94359 17.1066 9.57945 17.1089C8.85465 17.0974 8.26648 16.519 8.24281 15.7945C8.24251 15.0686 8.83073 14.4799 9.55663 14.4796C10.2825 14.4793 10.8712 15.0676 10.8715 15.7935C10.8715 15.7938 10.8715 15.7942 10.8715 15.7945C10.8901 16.1253 10.7688 16.4486 10.5374 16.6856ZM16.3517 12.3193C16.3517 12.9208 15.7725 13.0099 15.5052 13.0099H14.5695V8.33168H15.5052C15.9953 8.33168 16.3517 9.02228 16.3517 9.53464V12.3193Z" fill="#929DAD"/>
</svg>
