<svg width="16" height="18" viewBox="0 0 16 18" fill="none" xmlns="http://www.w3.org/2000/svg">
<path d="M15.5695 12.661L13.7413 11.6054L15.3256 10.6712C15.6178 10.4989 15.715 10.1223 15.5427 9.83009C15.3704 9.53796 14.9939 9.44074 14.7016 9.61298L12.5191 10.8999L9.22849 8.99996L12.5186 7.10038L14.7017 8.3871C14.7996 8.44484 14.907 8.4722 15.013 8.4722C15.2233 8.4722 15.4281 8.36409 15.5427 8.16974C15.715 7.87752 15.6177 7.50095 15.3254 7.32863L13.7408 6.39473L15.5695 5.33896C15.8633 5.16935 15.9639 4.79367 15.7943 4.4999C15.6247 4.20604 15.249 4.10539 14.9552 4.27508L13.127 5.33069L13.1104 3.49114C13.1073 3.15191 12.8291 2.87779 12.4906 2.88246C12.1514 2.88549 11.8789 3.16297 11.882 3.5022L11.9048 6.03625L8.61433 7.93608V4.13675L10.8205 2.88991C11.1158 2.723 11.2199 2.34831 11.053 2.0529C10.8861 1.75757 10.5113 1.65339 10.216 1.82038L8.61433 2.72562V0.614248C8.61433 0.275019 8.33931 0 8.00008 0C7.66085 0 7.38583 0.275019 7.38583 0.614248V2.72562L5.7842 1.82047C5.48871 1.65347 5.11418 1.75757 4.94719 2.05298C4.78028 2.34831 4.88437 2.72308 5.1797 2.88999L7.38575 4.13684V7.93608L4.09527 6.03625L4.11812 3.5022C4.12123 3.16297 3.84867 2.88549 3.50944 2.88246C3.50755 2.88246 3.50575 2.88246 3.50379 2.88246C3.16718 2.88246 2.89273 3.15379 2.8897 3.49122L2.87308 5.33069L1.04483 4.27508C0.751055 4.10539 0.375381 4.20612 0.205767 4.4999C0.0361528 4.79367 0.136808 5.16935 0.430582 5.33896L2.25916 6.39473L0.674315 7.3288C0.382097 7.50103 0.2848 7.87761 0.457036 8.16991C0.571613 8.36425 0.776444 8.47236 0.986845 8.47236C1.09282 8.47236 1.20019 8.44492 1.29815 8.38727L3.48151 7.10054L6.77167 9.00012L3.48094 10.9L1.29815 9.6129C1.00609 9.44066 0.629353 9.5378 0.457036 9.83001C0.284719 10.1222 0.381933 10.4988 0.674152 10.671L2.25875 11.6054L0.4305 12.6609C0.136726 12.8305 0.0360709 13.2062 0.205685 13.4999C0.319444 13.697 0.525913 13.8071 0.738197 13.8071C0.842374 13.8071 0.948024 13.7806 1.04475 13.7248L2.873 12.6691L2.88962 14.5088C2.89265 14.8461 3.1671 15.1175 3.5037 15.1175C3.50559 15.1175 3.50747 15.1175 3.50936 15.1175C3.84858 15.1144 4.12115 14.837 4.11803 14.4977L4.09518 11.9636L7.38575 10.0638V13.8632L5.1797 15.11C4.88437 15.2769 4.78028 15.6516 4.94719 15.947C5.06013 16.1469 5.26823 16.2591 5.48248 16.2591C5.58486 16.2591 5.68871 16.2335 5.7842 16.1795L7.38583 15.2744V17.3858C7.38583 17.725 7.66085 18 8.00008 18C8.33931 18 8.61433 17.725 8.61433 17.3858V15.2744L10.216 16.1795C10.3115 16.2335 10.4152 16.2591 10.5177 16.2591C10.7319 16.2591 10.94 16.1469 11.053 15.947C11.2199 15.6517 11.1158 15.2769 10.8205 15.11L8.61433 13.8632V10.0638L11.9048 11.9636L11.8814 14.4976C11.8782 14.8369 12.1507 15.1144 12.4899 15.1175C12.4919 15.1176 12.4938 15.1176 12.4957 15.1176C12.8322 15.1176 13.1067 14.8463 13.1098 14.509L13.1268 12.6691L14.9553 13.7248C15.0521 13.7807 15.1577 13.8072 15.2619 13.8072C15.4742 13.8072 15.6806 13.697 15.7944 13.5C15.964 13.2062 15.8634 12.8306 15.5695 12.661Z" fill="#9A9A9A"/>
</svg>
