<svg width="18" height="18" viewBox="0 0 18 18" fill="none" xmlns="http://www.w3.org/2000/svg">
<g clip-path="url(#clip0_86:1287)">
<path d="M12.1904 5.80965C11.3808 5.00013 10.238 4.47632 8.99988 4.47632C7.76179 4.47632 6.61893 4.97632 5.80941 5.80965C4.99988 6.61918 4.47607 7.76203 4.47607 9.00013C4.47607 10.2382 4.99988 11.3811 5.80941 12.1906C6.61893 13.0001 7.76179 13.5239 8.99988 13.5239C10.238 13.5239 11.3808 13.0239 12.1904 12.1906C12.9999 11.3811 13.5237 10.2382 13.5237 9.00013C13.5237 7.76203 13.0237 6.61918 12.1904 5.80965ZM11.3332 11.3335C10.738 11.9287 9.90465 12.2858 8.99988 12.2858C8.09512 12.2858 7.26179 11.9287 6.66655 11.3335C6.07131 10.7382 5.71417 9.90489 5.71417 9.00013C5.71417 8.09537 6.07131 7.26203 6.66655 6.66679C7.26179 6.07156 8.09512 5.71441 8.99988 5.71441C9.90465 5.71441 10.738 6.07156 11.3332 6.66679C11.9285 7.26203 12.2856 8.09537 12.2856 9.00013C12.2856 9.90489 11.9285 10.7382 11.3332 11.3335Z" fill="#9A9A9A"/>
<path d="M17.3809 8.38086H15.5475C15.2142 8.38086 14.9285 8.66657 14.9285 8.99991C14.9285 9.33324 15.2142 9.61896 15.5475 9.61896H17.3809C17.7142 9.61896 17.9999 9.33324 17.9999 8.99991C17.9999 8.66657 17.7142 8.38086 17.3809 8.38086Z" fill="#9A9A9A"/>
<path d="M8.99991 14.9287C8.66657 14.9287 8.38086 15.2144 8.38086 15.5478V17.3811C8.38086 17.7144 8.66657 18.0001 8.99991 18.0001C9.33324 18.0001 9.61895 17.7144 9.61895 17.3811V15.5478C9.61895 15.2144 9.33324 14.9287 8.99991 14.9287Z" fill="#9A9A9A"/>
<path d="M15.3572 14.5001L14.0477 13.1905C13.8334 12.9524 13.4286 12.9524 13.1905 13.1905C12.9524 13.4286 12.9524 13.8096 13.1905 14.0477L14.5001 15.3572C14.7382 15.5953 15.1191 15.5953 15.3572 15.3572C15.5953 15.1191 15.5953 14.7382 15.3572 14.5001Z" fill="#9A9A9A"/>
<path d="M8.99991 0C8.66657 0 8.38086 0.285714 8.38086 0.619048V2.45238C8.38086 2.78571 8.66657 3.07143 8.99991 3.07143C9.33324 3.07143 9.61895 2.78571 9.61895 2.45238V0.619048C9.61895 0.285714 9.33324 0 8.99991 0Z" fill="#9A9A9A"/>
<path d="M15.3809 2.64293C15.1428 2.40483 14.7618 2.40483 14.5237 2.64293L13.2142 3.95245C12.9761 4.19055 12.9761 4.5715 13.2142 4.80959C13.4285 5.04769 13.8333 5.04769 14.0714 4.80959L15.3809 3.50007C15.619 3.26197 15.619 2.88102 15.3809 2.64293Z" fill="#9A9A9A"/>
<path d="M2.45238 8.38086H0.619048C0.285714 8.38086 0 8.66657 0 8.99991C0 9.33324 0.261905 9.61896 0.619048 9.61896H2.45238C2.78571 9.61896 3.07143 9.33324 3.07143 8.99991C3.07143 8.66657 2.78571 8.38086 2.45238 8.38086Z" fill="#9A9A9A"/>
<path d="M4.78567 13.1905C4.57138 12.9524 4.16662 12.9524 3.92853 13.1905L2.619 14.5001C2.38091 14.7382 2.38091 15.1191 2.619 15.3572C2.8571 15.5953 3.23805 15.5953 3.47614 15.3572L4.78567 14.0477C5.02376 13.8096 5.02376 13.4286 4.78567 13.1905Z" fill="#9A9A9A"/>
<path d="M4.78567 3.95245L3.47614 2.64293C3.23805 2.40483 2.8571 2.40483 2.619 2.64293C2.38091 2.88102 2.38091 3.26197 2.619 3.50007L3.92853 4.80959C4.16662 5.04769 4.54757 5.04769 4.78567 4.80959C5.02376 4.5715 5.02376 4.19055 4.78567 3.95245Z" fill="#9A9A9A"/>
</g>
<defs>
<clipPath id="clip0_86:1287">
<rect width="18" height="18" fill="white"/>
</clipPath>
</defs>
</svg>
