<svg width="14" height="14" viewBox="0 0 14 14" fill="none" xmlns="http://www.w3.org/2000/svg">
<path d="M11.95 2.05C10.6833 0.783333 8.93333 0 7 0C5.06667 0 3.31667 0.783333 2.05 2.05C0.783333 3.31667 0 5.06667 0 7C0 8.93333 0.783333 10.6833 2.05 11.95C3.31667 13.2167 5.06667 14 7 14C8.93333 14 10.6833 13.2167 11.95 11.95C13.2167 10.6833 14 8.93333 14 7C14 5.06667 13.2167 3.31667 11.95 2.05ZM11.35 11.35C10.2333 12.4667 8.7 13.15 7 13.15C5.3 13.15 3.76667 12.4667 2.65 11.35C1.55 10.2333 0.85 8.7 0.85 7C0.85 5.3 1.55 3.76667 2.65 2.65C3.76667 1.53333 5.3 0.85 7 0.85C8.7 0.85 10.2333 1.53333 11.35 2.65C12.4667 3.76667 13.15 5.3 13.15 7C13.15 8.7 12.4667 10.2333 11.35 11.35Z" fill="white"/>
<path d="M10.5167 6.56668H7.43332V2.83334C7.43332 2.6 7.24998 2.4 6.99998 2.4C6.76665 2.4 6.56665 2.58334 6.56665 2.83334V7.00001C6.56665 7.23335 6.76665 7.43335 6.99998 7.43335H10.5167C10.75 7.43335 10.95 7.25001 10.95 7.00001C10.95 6.76668 10.7667 6.56668 10.5167 6.56668Z" fill="white"/>
</svg>
